<svg width="185.067" height="70.6" viewBox="0 0 185.067 70.6" xmlns="http://www.w3.org/2000/svg"><g id="svgGroup" stroke-linecap="round" fill-rule="evenodd" font-size="9pt" stroke="#000" stroke-width="0.5mm" fill="#000" style="stroke:#000;stroke-width:0.5mm;fill:#000"><path d="M 52.8 69.1 L 55.6 66.6 A 15.575 15.575 0 0 1 54.979 67.852 Q 54.619 68.497 54.233 69.019 A 8.115 8.115 0 0 1 53.85 69.5 A 3.243 3.243 0 0 1 52.897 70.271 A 2.975 2.975 0 0 1 51.5 70.6 Q 48.8 70.6 47.95 68.95 Q 47.104 67.307 47.1 65.813 A 5.339 5.339 0 0 1 47.1 65.8 A 11.256 11.256 0 0 1 47.283 63.859 Q 47.588 62.125 48.4 60 Q 49.7 56.6 51.45 53 A 162.734 162.734 0 0 1 52.933 50.022 Q 53.856 48.219 54.7 46.7 Q 55.661 45.018 55.853 43.913 A 3.018 3.018 0 0 0 55.9 43.4 A 1.568 1.568 0 0 0 55.876 43.111 Q 55.779 42.6 55.3 42.6 A 1.306 1.306 0 0 0 54.845 42.7 Q 54.167 42.959 53.034 43.89 A 21.86 21.86 0 0 0 52.55 44.3 Q 50.6 46 48.5 48.35 Q 46.4 50.7 44.9 52.7 A 33.492 33.492 0 0 0 43.084 55.395 A 40.614 40.614 0 0 0 42.05 57.2 Q 41.016 59.114 40.129 60.559 A 41.841 41.841 0 0 1 39.6 61.4 Q 39.1 62.3 38.4 62.3 Q 37.865 62.3 37.33 61.833 A 3.507 3.507 0 0 1 37 61.5 Q 36.3 60.7 36.3 58.6 Q 36.3 57.7 37.15 54.45 A 90.052 90.052 0 0 1 37.879 51.837 Q 38.563 49.513 39.5 46.7 Q 41 42.2 42.95 37.4 Q 44.9 32.6 47.1 28.4 Q 50 23.1 53.4 18.05 Q 56.8 13 60.2 8.9 A 61.635 61.635 0 0 1 62.694 6.064 Q 63.963 4.712 65.172 3.618 A 31.026 31.026 0 0 1 66.6 2.4 A 19.603 19.603 0 0 1 68.031 1.35 Q 70.075 0 71.5 0 A 5.971 5.971 0 0 1 72.231 0.041 Q 73.317 0.176 73.7 0.75 A 7.667 7.667 0 0 1 74.317 1.876 A 9.182 9.182 0 0 1 74.55 2.45 Q 74.876 3.334 75.851 4.001 A 5.325 5.325 0 0 0 76 4.1 A 12.102 12.102 0 0 1 75.56 5.881 Q 74.975 7.7 73.752 10.022 A 43.169 43.169 0 0 1 73.55 10.4 A 31.301 31.301 0 0 1 71.402 13.802 Q 70.196 15.479 68.66 17.227 A 57.253 57.253 0 0 1 67.6 18.4 A 218.882 218.882 0 0 0 59.786 27.28 A 255.292 255.292 0 0 0 56.7 31.05 A 198.282 198.282 0 0 0 49.658 40.351 A 170.061 170.061 0 0 0 46.8 44.5 Q 46.4 45 46.05 45 A 0.279 0.279 0 0 1 45.979 44.992 Q 45.766 44.935 46.045 44.486 A 3.086 3.086 0 0 1 46.1 44.4 Q 49.5 38.4 53.75 33 Q 58 27.6 62.45 22.25 Q 66.9 16.9 70.8 11.3 Q 71.945 9.678 72.453 8.556 A 7.766 7.766 0 0 0 72.5 8.45 A 9.11 9.11 0 0 0 72.742 7.839 Q 72.957 7.226 72.993 6.775 A 2.201 2.201 0 0 0 73 6.6 Q 73 5.727 72.307 5.547 A 1.621 1.621 0 0 0 71.9 5.5 A 4.077 4.077 0 0 0 70.294 5.866 Q 68.982 6.43 67.44 7.863 A 21.984 21.984 0 0 0 66.4 8.9 A 100.786 100.786 0 0 0 63.495 12.231 Q 62.043 13.966 60.494 15.95 A 174.941 174.941 0 0 0 59.45 17.3 A 180.604 180.604 0 0 0 55.5 22.654 A 142.451 142.451 0 0 0 52.8 26.6 Q 51.703 28.245 50.395 30.525 A 123.275 123.275 0 0 0 49.15 32.75 Q 47.1 36.5 45.15 40.55 A 99.772 99.772 0 0 0 43.4 44.379 Q 42.598 46.244 41.97 47.946 A 60.875 60.875 0 0 0 41.95 48 Q 40.7 51.4 40.7 53.1 Q 40.7 54 41.4 54 A 1.159 1.159 0 0 0 41.875 53.894 Q 42.038 53.822 42.2 53.7 A 7.005 7.005 0 0 0 42.7 53.286 A 8.437 8.437 0 0 0 43 53 Q 45.4 50.6 48.15 47.7 Q 50.9 44.8 53.7 41.85 A 335.725 335.725 0 0 1 56.295 39.145 Q 57.532 37.871 58.651 36.749 A 201.635 201.635 0 0 1 58.8 36.6 A 7.873 7.873 0 0 0 59.59 36.844 Q 60.003 36.946 60.373 36.982 A 3.981 3.981 0 0 0 60.75 37 A 3.511 3.511 0 0 1 61.482 37.083 Q 61.835 37.158 62.223 37.302 A 7.356 7.356 0 0 1 62.7 37.5 Q 63.5 37.82 63.66 38.652 A 2.372 2.372 0 0 1 63.7 39.1 Q 63.7 39.601 63.496 40.254 A 7.507 7.507 0 0 1 63.3 40.8 A 17.914 17.914 0 0 1 62.755 42.023 A 22.473 22.473 0 0 1 62.3 42.9 Q 60.1 46.6 57.5 50.05 Q 54.9 53.5 52.75 57.15 A 27.762 27.762 0 0 0 49.738 64.619 A 31.298 31.298 0 0 0 49.6 65.2 A 8.751 8.751 0 0 0 49.503 65.794 A 11.224 11.224 0 0 0 49.45 66.3 Q 49.4 66.9 49.4 67.4 A 6.735 6.735 0 0 0 49.453 68.284 Q 49.681 70 50.9 70 A 2.095 2.095 0 0 0 51.721 69.822 Q 52.031 69.69 52.35 69.463 A 5.061 5.061 0 0 0 52.8 69.1 Z M 74.5 35.4 L 74.9 35.4 Q 75.672 35.4 75.947 35.689 A 0.571 0.571 0 0 1 76.1 36.1 Q 76.1 36.714 75.561 37.636 A 8.168 8.168 0 0 1 75.4 37.9 Q 75.1 38.4 74.1 40.25 A 4489.307 4489.307 0 0 1 73.168 41.974 Q 72.69 42.856 72.16 43.836 A 7705.972 7705.972 0 0 1 71.8 44.5 A 131.313 131.313 0 0 0 70.273 47.402 A 107.657 107.657 0 0 0 69.45 49.05 Q 68.4 51.2 67.9 52.4 A 3.88 3.88 0 0 0 67.543 54.023 A 4.116 4.116 0 0 0 67.6 54.7 A 121.417 121.417 0 0 1 69.651 51.442 Q 70.913 49.502 72.4 47.35 A 59.596 59.596 0 0 1 76.392 42.183 A 51.377 51.377 0 0 1 78.3 40.1 A 5.076 5.076 0 0 1 79.07 39.362 Q 79.599 38.959 80.163 38.801 A 2.729 2.729 0 0 1 80.9 38.7 Q 82.568 38.7 83.686 39.161 A 3.665 3.665 0 0 1 84.95 40 A 4.794 4.794 0 0 1 85.777 41.139 A 3.82 3.82 0 0 1 86.2 42.9 Q 86.2 44.8 85.1 47.3 A 209.126 209.126 0 0 0 84.867 47.886 Q 84.498 48.818 83.855 50.454 A 1917.405 1917.405 0 0 0 83.7 50.85 Q 82.7 53.4 81.7 55.8 A 552.222 552.222 0 0 0 82.497 54.681 Q 83.679 53.018 85.228 50.816 A 1559.517 1559.517 0 0 0 85.45 50.5 Q 87.7 47.3 90.15 44.15 A 93.742 93.742 0 0 1 91.924 41.935 Q 93.35 40.213 94.6 38.9 A 20.093 20.093 0 0 1 95.367 38.134 Q 96.478 37.087 97.159 36.862 A 1.095 1.095 0 0 1 97.5 36.8 A 5.765 5.765 0 0 1 101.313 38.231 A 7.365 7.365 0 0 1 101.45 38.35 Q 102.74 39.492 103.079 40.39 A 1.726 1.726 0 0 1 103.2 41 A 4.639 4.639 0 0 1 103.054 42.098 Q 102.731 43.413 101.7 45.2 Q 100.256 47.703 96.959 52.986 A 799.089 799.089 0 0 1 96.7 53.4 Q 94.7 56.6 92.75 60.55 Q 91.424 63.235 91 65.435 A 10.386 10.386 0 0 0 90.8 67.4 A 6.735 6.735 0 0 0 90.853 68.284 Q 91.081 70 92.3 70 A 2.095 2.095 0 0 0 93.121 69.822 Q 93.431 69.69 93.75 69.463 A 5.061 5.061 0 0 0 94.2 69.1 A 24.555 24.555 0 0 0 95.414 67.984 A 27.326 27.326 0 0 0 95.6 67.8 Q 96.3 67.1 97 66.6 A 17.349 17.349 0 0 1 96.386 67.852 Q 95.863 68.813 95.3 69.5 A 3.021 3.021 0 0 1 94.346 70.29 A 2.896 2.896 0 0 1 93 70.6 Q 91.474 70.6 90.523 70.073 A 2.792 2.792 0 0 1 89.4 68.95 A 7.814 7.814 0 0 1 88.754 67.414 A 6.055 6.055 0 0 1 88.5 65.7 A 14.433 14.433 0 0 1 88.91 62.352 A 18.44 18.44 0 0 1 89.55 60.25 Q 90.6 57.4 91.9 54.6 Q 94.2 49.9 95.5 47.5 Q 96.777 45.144 97.33 43.944 A 19.698 19.698 0 0 0 97.35 43.9 Q 97.817 42.882 97.887 42.008 A 3.815 3.815 0 0 0 97.9 41.7 Q 97.9 40.857 97.545 40.512 A 0.79 0.79 0 0 0 97.4 40.4 A 2.227 2.227 0 0 0 96.931 40.185 A 1.741 1.741 0 0 0 96.4 40.1 A 2.185 2.185 0 0 0 95.804 40.189 Q 95.542 40.264 95.257 40.4 A 5.133 5.133 0 0 0 94.8 40.65 A 9.039 9.039 0 0 0 93.302 41.804 A 10.167 10.167 0 0 0 93.1 42 A 34.408 34.408 0 0 0 91.783 43.484 Q 91.075 44.326 90.321 45.313 A 66.229 66.229 0 0 0 89.4 46.55 Q 87.4 49.3 85.55 52.25 Q 83.7 55.2 82.35 57.6 Q 81 60 80.5 61 A 5.801 5.801 0 0 1 80.062 61.745 Q 79.319 62.8 78.4 62.8 A 2.312 2.312 0 0 1 77.291 62.495 Q 76.534 62.084 75.749 61.119 A 10.265 10.265 0 0 1 75.5 60.8 A 2547.803 2547.803 0 0 1 76.151 59.314 Q 76.594 58.303 77.1 57.15 A 181.027 181.027 0 0 0 78.788 53.174 A 197.853 197.853 0 0 0 78.9 52.9 A 54.644 54.644 0 0 0 80.216 49.455 A 67.219 67.219 0 0 0 80.95 47.2 A 28.45 28.45 0 0 0 81.451 45.36 Q 81.9 43.444 81.9 42 Q 81.9 40.739 81.503 40.235 A 0.85 0.85 0 0 0 80.8 39.9 A 1.535 1.535 0 0 0 80.23 40.025 Q 79.47 40.332 78.411 41.389 A 14.037 14.037 0 0 0 78.4 41.4 Q 77 42.7 74.95 45.35 A 85.943 85.943 0 0 0 72.368 48.877 A 104.846 104.846 0 0 0 70.8 51.2 Q 68.7 54.4 67.15 57.35 Q 65.713 60.085 65.265 61.917 A 8.903 8.903 0 0 0 65.2 62.2 A 0.742 0.742 0 0 1 64.672 62.656 Q 64.508 62.7 64.3 62.7 Q 63.4 62.7 62.4 61.9 Q 61.411 61.109 61.498 59.341 A 6.173 6.173 0 0 1 61.5 59.3 Q 61.5 59.045 62.08 57.594 A 63.788 63.788 0 0 1 62.3 57.05 A 139.209 139.209 0 0 1 62.949 55.496 Q 63.24 54.811 63.566 54.062 A 249.753 249.753 0 0 1 64.25 52.5 Q 65.4 49.9 66.5 47.4 Q 67.484 45.164 68.148 43.728 A 100.352 100.352 0 0 1 68.3 43.4 Q 67.6 42.8 67.55 42.5 A 1.215 1.215 0 0 1 67.533 42.3 Q 67.533 42.102 67.599 41.903 A 1.428 1.428 0 0 1 67.6 41.9 A 4.018 4.018 0 0 0 67.766 41.658 Q 68.035 41.237 68.459 40.428 A 40.346 40.346 0 0 0 68.5 40.35 L 69.7 38.05 A 27.542 27.542 0 0 0 69.939 37.583 Q 70.322 36.813 70.4 36.5 A 4.536 4.536 0 0 1 70.616 36.401 Q 71.074 36.202 72.05 35.85 Q 73.3 35.4 74.5 35.4 Z M 159 34.1 L 159.4 34.1 Q 160.172 34.1 160.447 34.389 A 0.571 0.571 0 0 1 160.6 34.8 Q 160.6 35.414 160.061 36.336 A 8.168 8.168 0 0 1 159.9 36.6 Q 159.619 37.068 158.638 38.893 A 359.327 359.327 0 0 0 158.5 39.15 A 3023.155 3023.155 0 0 1 157.403 41.193 Q 156.744 42.419 156 43.8 A 153.844 153.844 0 0 0 154.348 46.952 A 128.179 128.179 0 0 0 153.45 48.75 Q 152.57 50.549 152.07 51.674 A 29.895 29.895 0 0 0 151.8 52.3 Q 151.543 53.072 151.543 53.806 A 4.152 4.152 0 0 0 151.55 54.05 Q 151.599 54.876 151.977 54.333 A 1.861 1.861 0 0 0 152 54.3 A 130.038 130.038 0 0 1 154.374 50.855 Q 155.481 49.304 156.517 47.968 A 72.002 72.002 0 0 1 157.2 47.1 Q 159.6 44.1 162 41.5 A 122.601 122.601 0 0 1 165.195 38.172 A 148.915 148.915 0 0 1 167.3 36.1 Q 168.3 36.5 169.4 36.5 A 3.379 3.379 0 0 1 170.44 36.655 A 2.907 2.907 0 0 1 171.3 37.1 Q 171.7 37.4 171.7 38.1 A 3.548 3.548 0 0 1 171.577 38.967 Q 171.249 40.252 170.05 42.25 Q 168.4 45 166.4 48.4 Q 164.906 50.99 163.412 54.374 A 84.105 84.105 0 0 0 163.4 54.4 Q 162.338 56.806 162.028 58.762 A 9.827 9.827 0 0 0 161.9 60.3 A 6.188 6.188 0 0 0 161.963 61.212 Q 162.069 61.919 162.35 62.45 A 1.634 1.634 0 0 0 162.784 62.983 Q 163.106 63.235 163.556 63.287 A 2.127 2.127 0 0 0 163.8 63.3 A 2.776 2.776 0 0 0 164.61 63.171 Q 164.96 63.064 165.334 62.87 A 6.142 6.142 0 0 0 165.8 62.6 A 4.022 4.022 0 0 0 166.203 62.3 Q 166.916 61.713 168.314 60.278 A 102.745 102.745 0 0 0 169.3 59.25 A 37.845 37.845 0 0 0 171.373 56.853 Q 172.394 55.575 173.477 54.041 A 84.477 84.477 0 0 0 175.2 51.5 A 3.984 3.984 0 0 1 175.306 51.398 Q 175.46 51.255 175.545 51.215 A 0.138 0.138 0 0 1 175.599 51.2 Q 175.8 51.2 175.8 51.4 Q 175.8 51.6 175.5 52.2 Q 173.008 56.429 170.545 59.26 A 27.355 27.355 0 0 1 168.95 60.95 A 25.626 25.626 0 0 1 167.598 62.177 Q 165.306 64.1 163.9 64.1 Q 162.269 64.1 161.247 63.49 A 3.126 3.126 0 0 1 160.25 62.55 Q 159.2 61 159.2 58.9 A 16.34 16.34 0 0 1 159.816 54.509 A 18.422 18.422 0 0 1 159.95 54.05 Q 160.7 51.6 161.65 49.55 Q 162.6 47.5 163.2 46.4 Q 164.581 43.8 164.84 42.652 A 2.107 2.107 0 0 0 164.9 42.2 Q 164.9 41.184 164.046 41.448 A 1.936 1.936 0 0 0 163.9 41.5 A 2.735 2.735 0 0 0 163.433 41.737 Q 162.959 42.029 162.34 42.589 A 17.646 17.646 0 0 0 161.7 43.2 A 42.846 42.846 0 0 0 160.093 44.902 A 55.114 55.114 0 0 0 158.8 46.4 A 123.136 123.136 0 0 0 157.393 48.119 Q 156.733 48.941 156.159 49.688 A 72.211 72.211 0 0 0 156.15 49.7 A 85.136 85.136 0 0 0 155.688 50.308 Q 155.072 51.126 154.803 51.537 A 4.917 4.917 0 0 0 154.7 51.7 A 65.468 65.468 0 0 0 153.121 54.056 Q 151.722 56.251 150.969 57.915 A 16.833 16.833 0 0 0 150.8 58.3 Q 149.7 60.9 149.2 62.1 Q 149.005 62.588 148.142 62.6 A 3.154 3.154 0 0 1 148.1 62.6 A 2.365 2.365 0 0 1 147.095 62.366 Q 146.772 62.216 146.449 61.969 A 4.529 4.529 0 0 1 146.3 61.85 A 2.392 2.392 0 0 1 145.519 60.591 Q 145.415 60.201 145.402 59.735 A 4.833 4.833 0 0 1 145.4 59.6 A 2.427 2.427 0 0 1 145.453 59.139 Q 145.602 58.384 146.173 57.044 A 28.917 28.917 0 0 1 146.3 56.75 A 189.945 189.945 0 0 1 147.031 55.107 Q 147.359 54.379 147.727 53.577 A 355.536 355.536 0 0 1 148.5 51.9 Q 149.7 49.2 150.9 46.45 Q 151.819 44.345 152.444 42.913 A 2705.596 2705.596 0 0 1 152.8 42.1 A 5.808 5.808 0 0 1 152.545 41.869 Q 152.1 41.439 152.1 41.2 A 1.494 1.494 0 0 1 152.114 40.989 Q 152.138 40.825 152.2 40.7 Q 152.4 40.2 153 39.05 L 154.2 36.75 A 70.61 70.61 0 0 1 154.411 36.349 Q 154.822 35.574 154.988 35.319 A 2.1 2.1 0 0 1 155 35.3 A 1.978 1.978 0 0 1 155.173 35.2 Q 155.561 34.996 156.515 34.614 A 48.176 48.176 0 0 1 156.55 34.6 A 7.077 7.077 0 0 1 158.017 34.183 A 5.98 5.98 0 0 1 159 34.1 Z M 123.8 36.7 L 126.4 37.3 A 3.672 3.672 0 0 1 127.437 37.747 Q 128.437 38.395 128.577 39.667 A 3.946 3.946 0 0 1 128.6 40.1 A 4.614 4.614 0 0 1 128.401 41.406 Q 128.241 41.947 127.955 42.517 A 8.681 8.681 0 0 1 127.75 42.9 A 6.951 6.951 0 0 1 126.29 44.677 A 9.089 9.089 0 0 1 125.2 45.5 A 31.628 31.628 0 0 1 123.892 46.325 A 37.356 37.356 0 0 1 123.25 46.7 Q 122.2 47.3 121.1 47.9 L 116.6 50.3 A 26.975 26.975 0 0 0 114.396 51.585 A 21.369 21.369 0 0 0 112.9 52.65 Q 111.3 53.9 110.6 55.3 L 110.35 55.35 A 0.303 0.303 0 0 1 110.323 55.354 Q 110.112 55.377 110.195 55.022 A 1.401 1.401 0 0 1 110.2 55 A 6.762 6.762 0 0 1 110.992 53.611 Q 111.432 53.004 112.04 52.391 A 15.013 15.013 0 0 1 112.95 51.55 Q 115 49.8 117.1 48.5 A 16.04 16.04 0 0 1 119.019 47.176 A 14.805 14.805 0 0 1 119.15 47.1 Q 120.2 46.5 121.2 45.8 Q 122.2 45.1 123.15 44.35 Q 124.1 43.6 124.8 42.9 A 6.782 6.782 0 0 0 125.376 42.25 Q 125.742 41.775 125.95 41.3 Q 126.2 40.73 126.271 40.261 A 2.391 2.391 0 0 0 126.3 39.9 A 2.331 2.331 0 0 0 126.173 39.097 Q 125.798 38.071 124.311 38.005 A 4.731 4.731 0 0 0 124.1 38 A 4.006 4.006 0 0 0 122.945 38.183 Q 121.997 38.469 120.9 39.2 A 27.186 27.186 0 0 0 117.235 42.215 A 30.577 30.577 0 0 0 116.7 42.75 Q 114.7 44.8 112.9 47.2 A 27.962 27.962 0 0 0 110.701 50.763 A 34.522 34.522 0 0 0 109.55 53.2 A 24.654 24.654 0 0 0 108.785 55.218 Q 108.111 57.284 108.1 58.847 A 7.36 7.36 0 0 0 108.1 58.9 A 6.13 6.13 0 0 0 108.207 60.087 Q 108.339 60.756 108.635 61.261 A 2.811 2.811 0 0 0 109.45 62.15 Q 110.8 63.1 112.6 63.1 A 9.587 9.587 0 0 0 117.256 61.88 A 11.256 11.256 0 0 0 117.4 61.8 A 14.732 14.732 0 0 0 119.982 59.857 A 17.069 17.069 0 0 0 120.6 59.25 A 68.342 68.342 0 0 0 121.655 58.137 Q 122.167 57.583 122.604 57.082 A 34.706 34.706 0 0 0 123.1 56.5 A 73.152 73.152 0 0 0 123.735 55.694 Q 124.015 55.334 124.318 54.936 A 134.585 134.585 0 0 0 124.95 54.1 Q 125.742 53.045 126.164 52.387 A 8.897 8.897 0 0 0 126.4 52 A 0.602 0.602 0 0 1 126.446 51.959 Q 126.612 51.824 126.7 52 Q 126.777 52.154 126.795 52.248 A 0.282 0.282 0 0 1 126.8 52.3 Q 126.432 52.945 125.597 54.31 A 249.378 249.378 0 0 1 125.45 54.55 A 25.928 25.928 0 0 1 124.773 55.592 Q 123.965 56.779 122.779 58.299 A 81.267 81.267 0 0 1 122.7 58.4 Q 120.6 61.1 118.3 62.6 A 8.727 8.727 0 0 1 115.583 63.748 Q 114.436 64.029 113.096 64.086 A 16.387 16.387 0 0 1 112.4 64.1 A 7.195 7.195 0 0 1 108.092 62.66 A 9.405 9.405 0 0 1 107.45 62.15 A 6.241 6.241 0 0 1 105.503 58.941 Q 105.2 57.795 105.2 56.4 Q 105.2 53.4 106.8 49.9 A 32.078 32.078 0 0 1 110.635 43.601 A 35.718 35.718 0 0 1 110.95 43.2 A 30.524 30.524 0 0 1 114.102 39.788 A 25.016 25.016 0 0 1 116.4 37.9 Q 118.458 36.41 120.314 35.927 A 7.005 7.005 0 0 1 121.8 35.7 Q 122.2 36.1 122.75 36.3 Q 123.3 36.5 123.8 36.7 Z M 144.7 36.7 L 147.3 37.3 A 3.672 3.672 0 0 1 148.337 37.747 Q 149.337 38.395 149.477 39.667 A 3.946 3.946 0 0 1 149.5 40.1 A 4.614 4.614 0 0 1 149.301 41.406 Q 149.141 41.947 148.855 42.517 A 8.681 8.681 0 0 1 148.65 42.9 A 6.951 6.951 0 0 1 147.19 44.677 A 9.089 9.089 0 0 1 146.1 45.5 A 31.628 31.628 0 0 1 144.792 46.325 A 37.356 37.356 0 0 1 144.15 46.7 Q 143.1 47.3 142 47.9 L 137.5 50.3 A 26.975 26.975 0 0 0 135.296 51.585 A 21.369 21.369 0 0 0 133.8 52.65 Q 132.2 53.9 131.5 55.3 L 131.25 55.35 A 0.303 0.303 0 0 1 131.223 55.354 Q 131.012 55.377 131.095 55.022 A 1.401 1.401 0 0 1 131.1 55 A 6.762 6.762 0 0 1 131.892 53.611 Q 132.332 53.004 132.94 52.391 A 15.013 15.013 0 0 1 133.85 51.55 Q 135.9 49.8 138 48.5 A 16.04 16.04 0 0 1 139.919 47.176 A 14.805 14.805 0 0 1 140.05 47.1 Q 141.1 46.5 142.1 45.8 Q 143.1 45.1 144.05 44.35 Q 145 43.6 145.7 42.9 A 6.782 6.782 0 0 0 146.276 42.25 Q 146.642 41.775 146.85 41.3 Q 147.1 40.73 147.171 40.261 A 2.391 2.391 0 0 0 147.2 39.9 A 2.331 2.331 0 0 0 147.073 39.097 Q 146.698 38.071 145.211 38.005 A 4.731 4.731 0 0 0 145 38 A 4.006 4.006 0 0 0 143.845 38.183 Q 142.897 38.469 141.8 39.2 A 27.186 27.186 0 0 0 138.135 42.215 A 30.577 30.577 0 0 0 137.6 42.75 Q 135.6 44.8 133.8 47.2 A 27.962 27.962 0 0 0 131.601 50.763 A 34.522 34.522 0 0 0 130.45 53.2 A 24.654 24.654 0 0 0 129.685 55.218 Q 129.011 57.284 129 58.847 A 7.36 7.36 0 0 0 129 58.9 A 6.13 6.13 0 0 0 129.107 60.087 Q 129.239 60.756 129.535 61.261 A 2.811 2.811 0 0 0 130.35 62.15 Q 131.7 63.1 133.5 63.1 A 9.587 9.587 0 0 0 138.156 61.88 A 11.256 11.256 0 0 0 138.3 61.8 A 14.732 14.732 0 0 0 140.882 59.857 A 17.069 17.069 0 0 0 141.5 59.25 A 68.342 68.342 0 0 0 142.555 58.137 Q 143.067 57.583 143.504 57.082 A 34.706 34.706 0 0 0 144 56.5 A 73.152 73.152 0 0 0 144.635 55.694 Q 144.915 55.334 145.218 54.936 A 134.585 134.585 0 0 0 145.85 54.1 Q 146.642 53.045 147.064 52.387 A 8.897 8.897 0 0 0 147.3 52 A 0.602 0.602 0 0 1 147.346 51.959 Q 147.512 51.824 147.6 52 Q 147.677 52.154 147.695 52.248 A 0.282 0.282 0 0 1 147.7 52.3 Q 147.332 52.945 146.497 54.31 A 249.378 249.378 0 0 1 146.35 54.55 A 25.928 25.928 0 0 1 145.673 55.592 Q 144.865 56.779 143.679 58.299 A 81.267 81.267 0 0 1 143.6 58.4 Q 141.5 61.1 139.2 62.6 A 8.727 8.727 0 0 1 136.483 63.748 Q 135.336 64.029 133.996 64.086 A 16.387 16.387 0 0 1 133.3 64.1 A 7.195 7.195 0 0 1 128.992 62.66 A 9.405 9.405 0 0 1 128.35 62.15 A 6.241 6.241 0 0 1 126.403 58.941 Q 126.1 57.795 126.1 56.4 Q 126.1 53.4 127.7 49.9 A 32.078 32.078 0 0 1 131.535 43.601 A 35.718 35.718 0 0 1 131.85 43.2 A 30.524 30.524 0 0 1 135.002 39.788 A 25.016 25.016 0 0 1 137.3 37.9 Q 139.358 36.41 141.214 35.927 A 7.005 7.005 0 0 1 142.7 35.7 Q 143.1 36.1 143.65 36.3 Q 144.2 36.5 144.7 36.7 Z M 21.6 44.9 L 17.4 51.3 Q 15.9 53.5 14.6 55.4 Q 13.605 56.855 12.141 58.661 A 84.526 84.526 0 0 1 11.2 59.8 Q 10.6 60.5 10.25 60.45 A 0.222 0.222 0 0 1 10.176 60.427 Q 9.985 60.324 10.315 59.824 A 3.977 3.977 0 0 1 10.4 59.7 Q 12.7 56.8 14.2 54.7 A 141.922 141.922 0 0 0 15.395 52.999 Q 15.923 52.237 16.499 51.387 A 272.471 272.471 0 0 0 17.7 49.6 Q 18.7 48.2 19.75 46.4 Q 20.8 44.6 21.3 42.7 Q 21.3 39.6 23.4 37.25 Q 25.5 34.9 28.55 33.65 A 14.258 14.258 0 0 1 30.916 32.902 Q 32.108 32.642 33.242 32.642 A 9.576 9.576 0 0 1 34.3 32.7 A 0.977 0.977 0 0 1 34.744 32.816 Q 35.152 33.024 35.6 33.6 Q 36.3 34.5 36.8 35.55 A 8.356 8.356 0 0 1 37.036 36.091 Q 37.3 36.764 37.3 37.2 A 0.666 0.666 0 0 1 37.292 37.306 Q 37.262 37.491 37.115 37.5 A 0.253 0.253 0 0 1 37.1 37.5 A 0.628 0.628 0 0 1 36.904 37.465 Q 36.721 37.404 36.485 37.239 A 3.625 3.625 0 0 1 36.3 37.1 A 2.516 2.516 0 0 0 35.447 36.622 Q 34.8 36.4 33.9 36.4 Q 32.02 36.4 29.819 37.322 A 16.446 16.446 0 0 0 29.3 37.55 Q 26.8 38.7 24.95 40.45 A 7.511 7.511 0 0 0 23.974 41.558 Q 23.1 42.794 23.1 44.1 A 3.416 3.416 0 0 0 23.694 46.009 A 4.873 4.873 0 0 0 24.25 46.7 A 18.781 18.781 0 0 0 26.404 48.618 A 21.123 21.123 0 0 0 26.85 48.95 A 12.41 12.41 0 0 1 28.199 50.073 A 9.492 9.492 0 0 1 29.2 51.2 A 8.362 8.362 0 0 1 29.954 52.154 Q 30.374 52.777 30.6 53.4 Q 31 54.5 31 55.6 Q 31 57.5 29.8 59.05 Q 28.6 60.6 26.9 61.6 A 9.134 9.134 0 0 1 23.253 62.743 A 11.333 11.333 0 0 1 22.1 62.8 Q 19.8 62.8 17.95 61.65 A 4.016 4.016 0 0 1 16.752 60.542 Q 16.192 59.738 16.113 58.66 A 4.937 4.937 0 0 1 16.1 58.3 A 4.851 4.851 0 0 1 16.205 57.317 A 6.314 6.314 0 0 1 16.4 56.6 A 5.293 5.293 0 0 1 16.624 55.985 Q 16.868 55.432 17.2 55.1 Q 17.2 56.2 17.9 57.05 A 5.687 5.687 0 0 0 19.143 58.183 A 5.266 5.266 0 0 0 19.5 58.4 Q 20.4 58.8 21.25 59 A 8.141 8.141 0 0 0 22.014 59.144 Q 22.402 59.197 22.753 59.2 A 4.955 4.955 0 0 0 22.8 59.2 A 5.135 5.135 0 0 0 24.414 58.958 A 4.133 4.133 0 0 0 26.4 57.55 A 6.26 6.26 0 0 0 27.354 55.893 A 5.304 5.304 0 0 0 27.7 54 A 5.439 5.439 0 0 0 27.391 52.145 A 4.947 4.947 0 0 0 26.8 51 Q 26.2 50.2 25.5 49.55 Q 24.8 48.9 24 48.2 A 6.136 6.136 0 0 1 23.156 47.338 A 7.163 7.163 0 0 1 22.9 47 Q 22.517 46.464 21.959 45.518 A 50.505 50.505 0 0 1 21.6 44.9 Z M 4.35 64.03 A 8.37 8.37 0 0 0 6.1 64.2 A 4.304 4.304 0 0 0 6.506 64.18 Q 6.997 64.134 7.534 63.977 A 8.102 8.102 0 0 0 8.55 63.6 Q 9.288 63.272 10.012 62.734 A 10.785 10.785 0 0 0 11.2 61.7 A 16.612 16.612 0 0 0 11.32 61.579 Q 12.582 60.291 14.3 58 Q 16.1 55.6 17.75 53.15 A 73.781 73.781 0 0 0 17.899 52.928 Q 19.437 50.627 20.2 49.1 Q 20.5 48.6 20.15 48.7 Q 19.877 48.778 19.451 49.284 A 7.13 7.13 0 0 0 19.2 49.6 Q 16.9 53.2 14.35 56.45 A 74.643 74.643 0 0 1 14.125 56.735 Q 11.716 59.775 9.9 61.4 Q 8.1 63 5.8 63 A 3.465 3.465 0 0 1 5.465 62.984 A 2.643 2.643 0 0 1 3.95 62.35 Q 3.399 61.873 3.253 60.883 A 5.371 5.371 0 0 1 3.2 60.1 A 19.495 19.495 0 0 1 3.404 57.304 A 22.713 22.713 0 0 1 4.65 52.55 Q 6.1 48.7 8.4 45.2 A 56.848 56.848 0 0 1 8.697 44.753 Q 9.734 43.206 10.772 41.883 A 34.509 34.509 0 0 1 13 39.3 Q 12.3 38.8 11.65 38.3 Q 11 37.8 10.2 37.8 A 2.566 2.566 0 0 0 9.83 37.827 Q 9.232 37.914 8.672 38.285 A 4.273 4.273 0 0 0 7.95 38.9 Q 7.294 39.588 6.54 40.509 A 46.573 46.573 0 0 0 5.6 41.7 Q 4.5 43.2 3.45 44.7 L 1.7 47.2 Q 1.441 47.459 2.075 47.792 A 3.82 3.82 0 0 0 2.3 47.9 A 18.574 18.574 0 0 0 1.492 49.658 A 23.156 23.156 0 0 0 0.65 52.2 A 20.065 20.065 0 0 0 0.463 52.948 A 17.596 17.596 0 0 0 0 56.9 A 11.608 11.608 0 0 0 0.16 58.862 A 8.688 8.688 0 0 0 1.35 62.05 Q 2.32 63.595 4.35 64.03 Z M 17.1 27.5 L 22.4 26.6 A 7.291 7.291 0 0 1 22.586 26.561 Q 23.3 26.422 23.3 26.6 A 0.442 0.442 0 0 1 23.144 26.934 Q 22.997 27.069 22.712 27.165 A 2.475 2.475 0 0 1 22.6 27.2 A 9.751 9.751 0 0 0 20.927 27.777 A 7.978 7.978 0 0 0 19.8 28.4 Q 18.6 29.2 17.8 30.6 A 0.992 0.992 0 0 0 17.682 30.854 Q 17.6 31.116 17.6 31.5 Q 17.6 32.1 17.85 32.65 Q 18.1 33.2 18.4 33.6 A 2.033 2.033 0 0 1 18.456 33.678 Q 18.675 34 18.45 34 Q 18.211 34 17.836 33.909 A 5.454 5.454 0 0 1 17.8 33.9 A 6.013 6.013 0 0 1 15.316 32.034 A 7.113 7.113 0 0 1 15.25 31.95 Q 14.433 30.9 14.433 29.699 A 3.786 3.786 0 0 1 14.5 29 Q 14.652 28.318 14.889 28.01 A 0.772 0.772 0 0 1 15.05 27.85 A 0.845 0.845 0 0 1 15.268 27.748 Q 15.653 27.618 16.521 27.542 A 20.2 20.2 0 0 1 17.1 27.5 Z M 182.051 62.973 A 1.848 1.848 0 0 0 182.7 63.1 A 0.121 0.121 0 0 0 182.792 63.058 Q 182.811 63.038 182.826 63.009 A 0.403 0.403 0 0 0 182.85 62.95 Q 182.9 62.8 182.8 62.7 Q 182.639 62.297 182.835 61.504 A 6.431 6.431 0 0 1 182.95 61.1 Q 183.3 60 183.8 59 L 184.4 57.8 A 0.97 0.97 0 0 0 184.43 57.769 Q 184.615 57.567 184.8 57.15 A 2.526 2.526 0 0 0 184.939 56.759 A 1.826 1.826 0 0 0 185 56.3 A 1.398 1.398 0 0 0 185.009 56.281 Q 185.079 56.136 185.064 56.076 A 0.054 0.054 0 0 0 185.05 56.05 A 0.053 0.053 0 0 0 185.011 56.033 Q 184.976 56.033 184.928 56.074 A 0.451 0.451 0 0 0 184.9 56.1 A 1225.54 1225.54 0 0 1 184.127 56.576 Q 183.759 56.801 183.431 57.002 A 596.489 596.489 0 0 1 182.7 57.45 Q 182.138 57.794 181.419 58.157 A 28.727 28.727 0 0 1 180.5 58.6 Q 179.959 58.841 179.743 59.118 A 0.615 0.615 0 0 0 179.6 59.5 A 0.352 0.352 0 0 0 179.602 59.533 Q 179.609 59.609 179.65 59.65 A 0.082 0.082 0 0 1 179.659 59.661 Q 179.69 59.705 179.698 59.821 A 1.243 1.243 0 0 1 179.7 59.9 A 4.625 4.625 0 0 0 179.838 60.567 A 3.374 3.374 0 0 0 180.9 62.25 A 6.448 6.448 0 0 0 180.976 62.314 Q 181.547 62.784 182.051 62.973 Z" vector-effect="non-scaling-stroke"/></g></svg>